<?xml version="1.0" encoding="UTF-8" standalone="no"?>
<svg
   xmlns:dc="http://purl.org/dc/elements/1.1/"
   xmlns:cc="http://creativecommons.org/ns#"
   xmlns:rdf="http://www.w3.org/1999/02/22-rdf-syntax-ns#"
   xmlns:svg="http://www.w3.org/2000/svg"
   xmlns="http://www.w3.org/2000/svg"
   xmlns:sodipodi="http://sodipodi.sourceforge.net/DTD/sodipodi-0.dtd"
   xmlns:inkscape="http://www.inkscape.org/namespaces/inkscape"
   version="1.1"
   width="210.00mm"
   height="297.00mm"
   viewBox="0 0 210.00 297.00"
   id="svg843"
   sodipodi:docname="PlatonischeKörper_Tetraeder V3.svg"
   inkscape:version="1.0.2 (e86c8708, 2021-01-15)">
  <metadata
     id="metadata849">
    <rdf:RDF>
      <cc:Work
         rdf:about="">
        <dc:format>image/svg+xml</dc:format>
        <dc:type
           rdf:resource="http://purl.org/dc/dcmitype/StillImage" />
        <dc:title></dc:title>
      </cc:Work>
    </rdf:RDF>
  </metadata>
  <defs
     id="defs847" />
  <sodipodi:namedview
     pagecolor="#ffffff"
     bordercolor="#666666"
     borderopacity="1"
     objecttolerance="10"
     gridtolerance="10"
     guidetolerance="10"
     inkscape:pageopacity="0"
     inkscape:pageshadow="2"
     inkscape:window-width="1280"
     inkscape:window-height="800"
     id="namedview845"
     showgrid="false"
     inkscape:zoom="0.50511364"
     inkscape:cx="396.85039"
     inkscape:cy="561.25984"
     inkscape:window-x="0"
     inkscape:window-y="0"
     inkscape:window-maximized="0"
     inkscape:current-layer="svg843" />
  <style
     type="text/css"
     id="style833">
    path {
        fill: none;
        stroke-linecap: butt;
        stroke-linejoin: bevel;
        stroke-dasharray: none;
    }
    path.outer {
        stroke: #1a1a1a;
        stroke-dasharray: none;
        stroke-dashoffset: 0;
        stroke-width: 0.3;
        stroke-opacity: 1.0;
    }
    path.convex {
        stroke: #1a1a1a;
        stroke-dasharray: none;
        stroke-dashoffset:0;
        stroke-width:0.2;
        stroke-opacity: 1.0
    }
    path.concave {
        stroke: #000000;
        stroke-dasharray: 1.00,0.50,0.20,0.50;
        stroke-dashoffset: 0;
        stroke-width: 0.2;
        stroke-opacity: 1.0
    }
    path.freestyle {
        stroke: #000000;
        stroke-dasharray: none;
        stroke-dashoffset: 0;
        stroke-width: 0.2;
        stroke-opacity: 1.0
    }
    path.outer_background {
        stroke: #ffffff;
        stroke-opacity: 1.0;
        stroke-width: 0.5
    }
    path.inner_background {
        stroke: #ffffff;
        stroke-opacity: 1.0;
        stroke-width: 0.2
    }
    path.sticker {
        fill: #ffffff;
        stroke: none;
        fill-opacity: 1.0;
    }
    path.arrow {
        fill: #000000;
    }
    text {
        font-style: normal;
        fill: #000000;
        fill-opacity: 1.0;
        stroke: none;
    }
    text, tspan {
        text-anchor:middle;
    }
    </style>
  <g
     id="g841"
     transform="rotate(-11.554604,-16.286993,245.765)">
    <path
       class="sticker"
       d="M 8.867064,291.99999 5,287.7129 l 25.336135,-78.21463 5.646261,-1.20543 z"
       id="path835" />
    <path
       class="convex"
       d="m 45.021088,206.36315 58.934862,65.33615 m 29.9635,-92.49974 -86.050169,18.37101 M 35.982396,208.29284 8.867064,291.99999"
       id="path837" />
    <path
       class="outer"
       d="M 68.794106,107.00052 133.91945,179.19956 103.95595,271.6993 8.867064,291.99999 5,287.7129 l 25.336135,-78.21463 5.646261,-1.20543 9.038692,-1.92969 2.848193,-8.79258 -6.190512,-6.86289 z"
       id="path839" />
  </g>
  <g
     id="g859"
     transform="translate(88.683131,-157.73546)">
    <path
       class="sticker"
       d="M 89.205158,289.11324 84.205155,291.99999 5,246.27085 l 1e-6,-5.7735 z m 7e-6,-97.23176 5.000003,2.88675 -7e-6,91.45826 -5.000003,2.88675 z m -84.205164,48.61587 1e-6,-5.77351 79.205168,-45.72911 4.999995,2.88675 z"
       id="path853" />
    <path
       class="convex"
       d="m 5.000001,240.49735 84.205157,48.61589 m 0,0 7e-6,-97.23176 m 0,0 -84.205164,48.61587"
       id="path855" />
    <path
       class="outer"
       d="m 94.205168,194.76823 -7e-6,91.45826 -5.000003,2.88675 -5.000003,2.88675 L 5,246.27085 l 1e-6,-5.7735 1e-6,-5.77351 79.205168,-45.72911 4.999995,2.88675 z"
       id="path857" />
  </g>
</svg>
