<?xml version="1.0" encoding="UTF-8" standalone="no"?>
<svg
   xmlns:dc="http://purl.org/dc/elements/1.1/"
   xmlns:cc="http://creativecommons.org/ns#"
   xmlns:rdf="http://www.w3.org/1999/02/22-rdf-syntax-ns#"
   xmlns:svg="http://www.w3.org/2000/svg"
   xmlns="http://www.w3.org/2000/svg"
   xmlns:sodipodi="http://sodipodi.sourceforge.net/DTD/sodipodi-0.dtd"
   xmlns:inkscape="http://www.inkscape.org/namespaces/inkscape"
   version="1.1"
   id="svg10"
   xml:space="preserve"
   width="793.70074"
   height="1122.5197"
   viewBox="0 0 793.70074 1122.5197"
   sodipodi:docname="PlatonischeKörper_Ikosaeder V4.svg"
   inkscape:version="1.0.2 (e86c8708, 2021-01-15)"><metadata
     id="metadata16"><rdf:RDF><cc:Work
         rdf:about=""><dc:format>image/svg+xml</dc:format><dc:type
           rdf:resource="http://purl.org/dc/dcmitype/StillImage" /><dc:title></dc:title></cc:Work></rdf:RDF></metadata><defs
     id="defs14" /><sodipodi:namedview
     pagecolor="#ffffff"
     bordercolor="#666666"
     borderopacity="1"
     objecttolerance="10"
     gridtolerance="10"
     guidetolerance="10"
     inkscape:pageopacity="0"
     inkscape:pageshadow="2"
     inkscape:window-width="1280"
     inkscape:window-height="747"
     id="namedview12"
     showgrid="false"
     inkscape:zoom="1.2193101"
     inkscape:cx="683.24392"
     inkscape:cy="888.88952"
     inkscape:window-x="0"
     inkscape:window-y="25"
     inkscape:window-maximized="1"
     inkscape:current-layer="g18"
     inkscape:document-rotation="0" /><g
     id="g18"
     inkscape:groupmode="layer"
     inkscape:label="PlatonischeKörper_Ikosaeder V2"
     transform="matrix(3.7795279,0,0,-3.7795279,0,1122.5197)"><g
       id="g20"
       transform="rotate(18.762578,18.922832,62.391077)"><g
         id="g22"><path
           d="m 116.47276,126.78922 2.33996,-5.27806 -27.258124,-37.393393 -5.740921,0.612564"
           style="fill:#ffffff;fill-opacity:1;fill-rule:nonzero;stroke:none"
           id="path24" /><path
           d="M 24.495449,0.612572 18.75453,1.225129 0,43.528072 3.400944,48.193573"
           style="fill:#ffffff;fill-opacity:1;fill-rule:nonzero;stroke:none"
           id="path26" /><path
           d="M 55.154564,42.67144 57.494534,37.393391 30.236366,0 24.495449,0.612572"
           style="fill:#ffffff;fill-opacity:1;fill-rule:nonzero;stroke:none"
           id="path28" /><path
           d="m 177.79097,210.90695 2.33998,-5.27806 -27.25816,-37.39337 -5.74091,0.61258"
           style="fill:#ffffff;fill-opacity:1;fill-rule:nonzero;stroke:none"
           id="path30" /><path
           d="M 85.813675,84.730331 88.153648,79.452278 60.895485,42.058868 55.154564,42.67144"
           style="fill:#ffffff;fill-opacity:1;fill-rule:nonzero;stroke:none"
           id="path32" /><path
           d="m 147.13188,168.8481 2.33995,-5.27806 -27.25815,-37.39338 -5.74092,0.61256"
           style="fill:#ffffff;fill-opacity:1;fill-rule:nonzero;stroke:none"
           id="path34" /><path
           d="m 34.060059,90.252457 -2.339968,5.278053 27.258165,37.39339 5.740914,-0.61256"
           style="fill:#ffffff;fill-opacity:1;fill-rule:nonzero;stroke:none"
           id="path36" /><path
           d="m 64.71917,132.31134 -2.339962,5.27806 27.258159,37.39337 5.740914,-0.61256"
           style="fill:#ffffff;fill-opacity:1;fill-rule:nonzero;stroke:none"
           id="path38" /></g><g
         id="g40"><path
           d="M 55.154564,42.67144 34.060059,90.252457"
           style="fill:none;stroke:#191919;stroke-width:0.2;stroke-linecap:butt;stroke-linejoin:miter;stroke-miterlimit:10;stroke-dasharray:none;stroke-opacity:1"
           id="path42" /><path
           d="M 85.813675,84.730331 34.060059,90.252457"
           style="fill:none;stroke:#191919;stroke-width:0.2;stroke-linecap:butt;stroke-linejoin:miter;stroke-miterlimit:10;stroke-dasharray:none;stroke-opacity:1"
           id="path44" /><path
           d="M 55.154564,42.67144 85.813675,84.730331"
           style="fill:none;stroke:#191919;stroke-width:0.2;stroke-linecap:butt;stroke-linejoin:miter;stroke-miterlimit:10;stroke-dasharray:none;stroke-opacity:1"
           id="path46" /><path
           d="M 24.495449,0.612572 55.154564,42.67144"
           style="fill:none;stroke:#191919;stroke-width:0.2;stroke-linecap:butt;stroke-linejoin:miter;stroke-miterlimit:10;stroke-dasharray:none;stroke-opacity:1"
           id="path48" /><path
           d="M 55.154564,42.67144 3.400944,48.193573"
           style="fill:none;stroke:#191919;stroke-width:0.2;stroke-linecap:butt;stroke-linejoin:miter;stroke-miterlimit:10;stroke-dasharray:none;stroke-opacity:1"
           id="path50" /><path
           d="M 3.400944,48.193573 24.495449,0.612572"
           style="fill:none;stroke:#191919;stroke-width:0.2;stroke-linecap:butt;stroke-linejoin:miter;stroke-miterlimit:10;stroke-dasharray:none;stroke-opacity:1"
           id="path52" /><path
           d="M 85.813675,84.730331 64.71917,132.31134"
           style="fill:none;stroke:#191919;stroke-width:0.2;stroke-linecap:butt;stroke-linejoin:miter;stroke-miterlimit:10;stroke-dasharray:none;stroke-opacity:1"
           id="path54" /><path
           d="M 64.71917,132.31134 34.060059,90.252457"
           style="fill:none;stroke:#191919;stroke-width:0.2;stroke-linecap:butt;stroke-linejoin:miter;stroke-miterlimit:10;stroke-dasharray:none;stroke-opacity:1"
           id="path56" /><path
           d="M 85.813675,84.730331 116.47276,126.78922"
           style="fill:none;stroke:#191919;stroke-width:0.2;stroke-linecap:butt;stroke-linejoin:miter;stroke-miterlimit:10;stroke-dasharray:none;stroke-opacity:1"
           id="path58" /><path
           d="M 95.378281,174.37021 64.71917,132.31134"
           style="fill:none;stroke:#191919;stroke-width:0.20002498;stroke-linecap:butt;stroke-linejoin:miter;stroke-miterlimit:10;stroke-dasharray:none;stroke-opacity:1"
           id="path60" /><path
           d="m 64.71917,132.31134 51.75359,-5.52212"
           style="fill:none;stroke:#191919;stroke-width:0.2;stroke-linecap:butt;stroke-linejoin:miter;stroke-miterlimit:10;stroke-dasharray:none;stroke-opacity:1"
           id="path62" /><path
           d="m 126.03738,216.42908 51.75359,-5.52213"
           style="fill:none;stroke:#191919;stroke-width:0.2;stroke-linecap:butt;stroke-linejoin:miter;stroke-miterlimit:10;stroke-dasharray:none;stroke-opacity:1"
           id="path64" /><path
           d="m 126.03738,216.42908 21.0945,-47.58098"
           style="fill:none;stroke:#191919;stroke-width:0.2;stroke-linecap:butt;stroke-linejoin:miter;stroke-miterlimit:10;stroke-dasharray:none;stroke-opacity:1"
           id="path66" /><path
           d="m 147.13188,168.8481 30.65909,42.05885"
           style="fill:none;stroke:#191919;stroke-width:0.2;stroke-linecap:butt;stroke-linejoin:miter;stroke-miterlimit:10;stroke-dasharray:none;stroke-opacity:1"
           id="path68" /><path
           d="m 116.47276,126.78922 30.65912,42.05888"
           style="fill:none;stroke:#191919;stroke-width:0.2;stroke-linecap:butt;stroke-linejoin:miter;stroke-miterlimit:10;stroke-dasharray:none;stroke-opacity:1"
           id="path70" /><path
           d="M 95.378281,174.37021 116.47276,126.78922"
           style="fill:none;stroke:#191919;stroke-width:0.2;stroke-linecap:butt;stroke-linejoin:miter;stroke-miterlimit:10;stroke-dasharray:none;stroke-opacity:1"
           id="path72" /><path
           d="M 95.378281,174.37021 147.13188,168.8481"
           style="fill:none;stroke:#191919;stroke-width:0.2;stroke-linecap:butt;stroke-linejoin:miter;stroke-miterlimit:10;stroke-dasharray:none;stroke-opacity:1"
           id="path74" /></g><g
         id="g76"><path
           d="m 156.69647,258.48795 21.0945,-47.581 2.33998,-5.27806 -27.25816,-37.39337 -5.74091,0.61258 2.33995,-5.27806 -27.25815,-37.39338 -5.74092,0.61256 2.33996,-5.27806 -27.258124,-37.393393 -5.740921,0.612564 2.339973,-5.278053 -27.258163,-37.39341 -5.740921,0.612572 2.33997,-5.278049 L 30.236366,0 24.495449,0.612572 18.75453,1.225129 0,43.528072 l 3.400944,4.665501 30.659115,42.058884 -2.339968,5.278053 27.258165,37.39339 5.740914,-0.61256 -2.339962,5.27806 27.258159,37.39337 5.740914,-0.61256 -2.733548,5.33403 27.322077,37.92827 6.07057,-1.20343 -2.40672,5.91731 27.31815,37.24209 z"
           style="fill:none;stroke:#191919;stroke-width:0.3;stroke-linecap:butt;stroke-linejoin:miter;stroke-miterlimit:10;stroke-dasharray:none;stroke-opacity:1"
           id="path78"
           sodipodi:nodetypes="ccccccccccccccccccccccccccccccccc" /></g></g><g
       id="g90"
       transform="translate(93.231726,12.589876)"><g
         id="g92"><path
           d="M 90.148743,28.910442 C 85.353402,17.127174 57.899003,-4.5175658 45.074356,2.88675"
           style="fill:#ffffff;fill-opacity:1;fill-rule:nonzero;stroke:none"
           id="path94"
           sodipodi:nodetypes="cc" /><path
           d="m 45.074383,54.934151 c 12.824644,-7.404322 40.279031,14.24042 45.074383,26.023681 z"
           style="fill:#ffffff;fill-opacity:1;fill-rule:nonzero;stroke:none"
           id="path96"
           sodipodi:nodetypes="cc" /><path
           d="m 45.074398,106.98154 c 12.60228,1.73875 45.074368,-11.215081 45.074368,-26.023708"
           style="fill:#ffffff;fill-opacity:1;fill-rule:nonzero;stroke:none"
           id="path98"
           sodipodi:nodetypes="cc" /><path
           d="M 45.074356,2.88675 C 31.46048,-0.75681589 0.4965776,21.643073 0,28.910473"
           style="fill:#ffffff;fill-opacity:1;fill-rule:nonzero;stroke:none"
           id="path100"
           sodipodi:nodetypes="cc" /></g><g
         id="g102"><path
           d="M 1.5e-5,80.95787 45.074383,54.934151 90.148744,28.910444"
           style="fill:none;stroke:#191919;stroke-width:0.2;stroke-linecap:butt;stroke-linejoin:miter;stroke-miterlimit:10;stroke-dasharray:none;stroke-opacity:1"
           id="path104" /><path
           d="m 45.074383,54.934151 1.5e-5,52.047389"
           style="fill:none;stroke:#191919;stroke-width:0.2;stroke-linecap:butt;stroke-linejoin:miter;stroke-miterlimit:10;stroke-dasharray:none;stroke-opacity:1"
           id="path106" /><path
           d="M 45.074383,54.934151 0,28.910473"
           style="fill:none;stroke:#191919;stroke-width:0.2;stroke-linecap:butt;stroke-linejoin:miter;stroke-miterlimit:10;stroke-dasharray:none;stroke-opacity:1"
           id="path112" /><path
           d="M 45.074383,54.934151 45.074356,2.88675"
           style="fill:none;stroke:#191919;stroke-width:0.2;stroke-linecap:butt;stroke-linejoin:miter;stroke-miterlimit:10;stroke-dasharray:none;stroke-opacity:1"
           id="path116" /></g><g
         id="g120"><path
           d="M 0,28.910473 1.5e-5,80.95787 45.074398,106.98154"
           style="fill:none;stroke:#191919;stroke-width:0.3;stroke-linecap:butt;stroke-linejoin:miter;stroke-miterlimit:10;stroke-dasharray:none;stroke-opacity:1"
           id="path122"
           sodipodi:nodetypes="ccc" /></g></g><g
       id="g124"
       transform="translate(116.9256,130.72348)"><g
         id="g126"><path
           d="m 45.074368,104.0948 4.999996,-2.88675 V 60.971298 l -4.999996,-2.886749"
           style="fill:#ffffff;fill-opacity:1;fill-rule:nonzero;stroke:none"
           id="path128" /></g><g
         id="g130"><path
           d="M 4e-6,26.023693 40.287586,49.283745"
           style="fill:none;stroke:#191919;stroke-width:0.2;stroke-linecap:butt;stroke-linejoin:miter;stroke-miterlimit:10;stroke-dasharray:none;stroke-opacity:1"
           id="path132" /><path
           d="M 90.148743,26.023697 50.124756,49.131557"
           style="fill:none;stroke:#191919;stroke-width:0.2;stroke-linecap:butt;stroke-linejoin:miter;stroke-miterlimit:10;stroke-dasharray:none;stroke-opacity:1"
           id="path134" /><path
           d="M 45.074375,46.520092 45.074379,0"
           style="fill:none;stroke:#191919;stroke-width:0.2;stroke-linecap:butt;stroke-linejoin:miter;stroke-miterlimit:10;stroke-dasharray:none;stroke-opacity:1"
           id="path136" /><path
           d="M 0,78.071091 40.023983,54.963238"
           style="fill:none;stroke:#191919;stroke-width:0.2;stroke-linecap:butt;stroke-linejoin:miter;stroke-miterlimit:10;stroke-dasharray:none;stroke-opacity:1"
           id="path138" /><path
           d="M 45.074368,58.084549 V 104.0948"
           style="fill:none;stroke:#191919;stroke-width:0.2;stroke-linecap:butt;stroke-linejoin:miter;stroke-miterlimit:10;stroke-dasharray:none;stroke-opacity:1"
           id="path140" /></g><g
         id="g142"><path
           d="M 4e-6,26.023693 0,78.071091 45.074368,104.0948 50.074364,101.20805 V 60.971298 l -4.999996,-2.886749 -5.050385,-3.121311 0.263603,-5.679493 4.786789,-2.763653 5.050381,2.611465 0.177944,5.934418 39.846043,23.005123 V 26.023697 L 45.074379,0 Z"
           style="fill:none;stroke:#191919;stroke-width:0.3;stroke-linecap:butt;stroke-linejoin:miter;stroke-miterlimit:10;stroke-dasharray:none;stroke-opacity:1"
           id="path144" /></g></g><path
       style="fill:none;stroke:#000000;stroke-width:0.264583px;stroke-linecap:butt;stroke-linejoin:miter;stroke-opacity:1"
       d="m 93.231726,41.500352 45.074354,-26.023734 45.07439,26.023702 0.19669,5.739248 -40.14395,23.435382"
       id="path274" /><path
       style="fill:none;stroke:#000000;stroke-width:0.264583px;stroke-linecap:butt;stroke-linejoin:miter;stroke-opacity:1"
       d="M 138.30612,119.57142 183.38049,93.54771"
       id="path276" /><path
       style="fill:none;stroke:#000000;stroke-width:0.264583px;stroke-linecap:butt;stroke-linejoin:miter;stroke-opacity:1"
       d="M 24.294121,93.640743 19.095496,93.133865 4.7738738,48.107554 8.7923735,43.955463"
       id="path278"
       sodipodi:nodetypes="cccc" /><path
       style="fill:none;stroke:#000000;stroke-width:0.18520832;stroke-linecap:butt;stroke-linejoin:miter;stroke-opacity:1;stroke-miterlimit:4;stroke-dasharray:none"
       d="M 55.297613,193.01128 70.799351,242.69654 86.30108,292.3818"
       id="path280" /><path
       style="fill:none;stroke:#000000;stroke-width:0.264583px;stroke-linecap:butt;stroke-linejoin:miter;stroke-opacity:1"
       d="M 183.38049,93.547712 138.30611,67.524028"
       id="path75" /></g></svg>
