<?xml version="1.0" encoding="UTF-8" standalone="no"?>
<svg
   xmlns:dc="http://purl.org/dc/elements/1.1/"
   xmlns:cc="http://creativecommons.org/ns#"
   xmlns:rdf="http://www.w3.org/1999/02/22-rdf-syntax-ns#"
   xmlns:svg="http://www.w3.org/2000/svg"
   xmlns="http://www.w3.org/2000/svg"
   xmlns:sodipodi="http://sodipodi.sourceforge.net/DTD/sodipodi-0.dtd"
   xmlns:inkscape="http://www.inkscape.org/namespaces/inkscape"
   version="1.1"
   width="210.00mm"
   height="297.00mm"
   viewBox="0 0 210.00 297.00"
   id="svg38"
   sodipodi:docname="PlatonischeKörper Dodekaeder p1.svg"
   inkscape:version="1.0.2 (e86c8708, 2021-01-15)">
  <metadata
     id="metadata44">
    <rdf:RDF>
      <cc:Work
         rdf:about="">
        <dc:format>image/svg+xml</dc:format>
        <dc:type
           rdf:resource="http://purl.org/dc/dcmitype/StillImage" />
      </cc:Work>
    </rdf:RDF>
  </metadata>
  <defs
     id="defs42" />
  <sodipodi:namedview
     pagecolor="#ffffff"
     bordercolor="#666666"
     borderopacity="1"
     objecttolerance="10"
     gridtolerance="10"
     guidetolerance="10"
     inkscape:pageopacity="0"
     inkscape:pageshadow="2"
     inkscape:window-width="1280"
     inkscape:window-height="747"
     id="namedview40"
     showgrid="false"
     inkscape:zoom="0.50511364"
     inkscape:cx="86.286066"
     inkscape:cy="690.70434"
     inkscape:window-x="0"
     inkscape:window-y="25"
     inkscape:window-maximized="1"
     inkscape:current-layer="svg38" />
  <style
     type="text/css"
     id="style10">
    path {
        fill: none;
        stroke-linecap: butt;
        stroke-linejoin: bevel;
        stroke-dasharray: none;
    }
    path.outer {
        stroke: #1a1a1a;
        stroke-dasharray: none;
        stroke-dashoffset: 0;
        stroke-width: 0.3;
        stroke-opacity: 1.0;
    }
    path.convex {
        stroke: #1a1a1a;
        stroke-dasharray: none;
        stroke-dashoffset:0;
        stroke-width:0.2;
        stroke-opacity: 1.0
    }
    path.concave {
        stroke: #000000;
        stroke-dasharray: 1.00,0.50,0.20,0.50;
        stroke-dashoffset: 0;
        stroke-width: 0.2;
        stroke-opacity: 1.0
    }
    path.freestyle {
        stroke: #000000;
        stroke-dasharray: none;
        stroke-dashoffset: 0;
        stroke-width: 0.2;
        stroke-opacity: 1.0
    }
    path.outer_background {
        stroke: #ffffff;
        stroke-opacity: 1.0;
        stroke-width: 0.5
    }
    path.inner_background {
        stroke: #ffffff;
        stroke-opacity: 1.0;
        stroke-width: 0.2
    }
    path.sticker {
        fill: #ffffff;
        stroke: none;
        fill-opacity: 1.0;
    }
    path.arrow {
        fill: #000000;
    }
    text {
        font-style: normal;
        fill: #000000;
        fill-opacity: 1.0;
        stroke: none;
    }
    text, tspan {
        text-anchor:middle;
    }
    </style>
  <g
     id="g36">
    <g
       id="g18">
      <path
         class="sticker"
         d="m 38.596445,35.615738 c 11.07741,1.369678 25.530984,17.87146 20.763751,28.578847 z m 20.763751,28.578847 c 2.120465,10.9585 -9.107259,29.803997 -20.763748,28.578848 z"
         id="path12"
         sodipodi:nodetypes="cccccc" />
      <path
         class="convex"
         d=" M 38.596448 92.773433 L 59.360196 64.194585 M 59.360196 64.194585 L 38.596445 35.615738 M 38.596445 35.615738 L 5.000000 46.531896 "
         id="path14"
         style="stroke-width:0.29986111;stroke-miterlimit:4;stroke-dasharray:none" />
      <path
         class="outer"
         d="M 38.596448,92.773433 5.000002,81.857289 5,46.531896"
         id="path16"
         sodipodi:nodetypes="ccc" />
    </g>
    <g
       id="g26">
      <path
         class="sticker"
         d=" M 131.259923 150.448407 L 128.292811 155.401136 L 98.744755 154.923941 L 95.939119 149.877976 Z M 38.788867 148.955013 L 34.995426 144.602652 L 44.580114 116.648237 L 50.246102 115.539203 Z M 37.033287 257.661234 L 31.721693 259.924049 L 8.097325 242.170091 L 8.793448 236.438702 Z M 55.571479 203.593346 L 61.198694 204.884755 L 69.875707 233.134071 L 65.943700 237.361680 Z M 8.793448 236.438702 L 5.000000 232.086326 L 14.584695 204.131941 L 20.250675 203.022907 Z M 14.316906 166.138078 L 13.806214 160.387213 L 33.553121 146.521862 L 38.788867 148.955013 Z M 47.405508 291.429590 L 41.778293 290.138180 L 33.101288 261.888827 L 37.033287 257.661234 Z M 94.183532 258.584212 L 97.976972 262.936573 L 88.392285 290.890957 L 82.726297 291.999991 Z M 20.250675 203.022907 L 14.623453 201.731498 L 7.904802 179.857920 L 11.836831 175.630311 Z M 65.943700 237.361680 L 71.255294 235.098849 L 94.879669 252.852823 L 94.183532 258.584212 Z M 114.477311 95.810081 L 119.788905 93.547265 L 143.413280 111.301224 L 142.717157 117.032613 Z M 85.566898 116.109635 L 85.056205 110.358770 L 109.241565 93.376930 L 114.477311 95.810081 Z "
         id="path20" />
      <path
         class="convex"
         d="m 85.566898,116.10963 10.372221,33.76835 m 0,0 35.320801,0.57043 m 11.45724,-33.4158 -28.23985,-21.222529 M 50.246102,115.5392 38.788867,148.95501 m 0,0 28.239832,21.22253 M 38.788867,148.95501 14.316906,166.13808 m -2.480075,9.49223 8.413844,27.3926 m 0,0 35.320804,0.57044 M 8.793448,236.4387 37.033287,257.66123 m 0,0 28.910413,-20.29955 m 0,0 -10.372221,-33.76833 M 20.250675,203.02291 8.793448,236.4387 m 28.239839,21.22253 10.372221,33.76836 m 35.320789,0.5704 11.457235,-33.41578 m 0,0 L 65.9437,237.36168 M 114.47731,95.810081 85.566898,116.10963 50.246102,115.5392"
         id="path22" />
      <path
         class="outer"
         d="m 85.566899,116.10963 -0.510693,-5.75086 24.185354,-16.98184 5.23575,2.433151 5.31159,-2.262816 23.62438,17.753955 -0.69612,5.73139 -11.45724,33.4158 -2.96711,4.95273 -29.548054,-0.4772 -2.805636,-5.04596 -0.0083,5.68551 -23.890107,17.2231 -5.012014,-2.60905 3.345262,4.27581 -9.630121,27.96438 -5.172361,1.17562 5.627215,1.2914 8.677013,28.24932 -3.932007,4.22761 5.311594,-2.26283 23.624375,17.75397 -0.696137,5.73139 3.79344,4.35236 -9.584687,27.95439 -5.665988,1.10903 -35.320789,-0.5704 -5.627215,-1.29141 -8.677005,-28.24935 3.931999,-4.2276 -5.311594,2.26282 L 8.097325,242.17009 8.793448,236.4387 5,232.08633 l 9.584695,-27.95439 5.66598,-1.10903 -5.627222,-1.29141 -6.718651,-21.87358 3.932029,-4.22761 2.480075,-9.49223 -0.510692,-5.75087 19.746907,-13.86535 5.235746,2.43315 -3.793441,-4.35236 9.584688,-27.95441 5.665988,-1.10904 1.793591,-4.978 30.557114,0.37039 z"
         id="path24"
         style="stroke-width:0.300038;stroke-miterlimit:4;stroke-dasharray:none"
         sodipodi:nodetypes="ccccccccccccccccccccccccccccccccccccccccccccccccc" />
    </g>
    <g
       id="g34">
      <path
         class="sticker"
         d="m 166.52532,291.3965 c -12.3666,0.47616 -22.64793,-23.69401 -20.76375,-28.57885 z"
         id="path28"
         sodipodi:nodetypes="ccc" />
      <path
         class="convex"
         d=" M 166.525324 234.238799 L 145.761569 262.817650 M 145.761569 262.817650 L 166.525324 291.396496 "
         id="path30"
         style="stroke-width:0.29986111;stroke-miterlimit:4;stroke-dasharray:none" />
      <path
         class="outer"
         d="m 166.52532,234.2388 33.59644,10.91615 v 35.3254 l -33.59644,10.91615"
         id="path32"
         sodipodi:nodetypes="cccc" />
    </g>
  </g>
  <path
     style="fill:none;stroke:#000000;stroke-width:0.26458333;stroke-linecap:butt;stroke-linejoin:miter;stroke-opacity:1;stroke-miterlimit:4;stroke-dasharray:none"
     d="m 55.571479,203.59335 11.457218,-33.41581 28.91042,-20.29956"
     id="path898" />
  <path
     style="fill:none;stroke:#000000;stroke-width:0.264583px;stroke-linecap:butt;stroke-linejoin:miter;stroke-opacity:1"
     d="M 60.74384,202.41773 Z"
     id="path900" />
</svg>
