<?xml version="1.0" encoding="UTF-8" standalone="no"?>
<svg
   xmlns:dc="http://purl.org/dc/elements/1.1/"
   xmlns:cc="http://creativecommons.org/ns#"
   xmlns:rdf="http://www.w3.org/1999/02/22-rdf-syntax-ns#"
   xmlns:svg="http://www.w3.org/2000/svg"
   xmlns="http://www.w3.org/2000/svg"
   xmlns:sodipodi="http://sodipodi.sourceforge.net/DTD/sodipodi-0.dtd"
   xmlns:inkscape="http://www.inkscape.org/namespaces/inkscape"
   version="1.1"
   width="210.00mm"
   height="297.00mm"
   viewBox="0 0 210.00 297.00"
   id="svg912"
   sodipodi:docname="PlatonischeKörper Dodekaeder p2.svg"
   inkscape:version="1.0.2 (e86c8708, 2021-01-15)">
  <metadata
     id="metadata918">
    <rdf:RDF>
      <cc:Work
         rdf:about="">
        <dc:format>image/svg+xml</dc:format>
        <dc:type
           rdf:resource="http://purl.org/dc/dcmitype/StillImage" />
      </cc:Work>
    </rdf:RDF>
  </metadata>
  <defs
     id="defs916" />
  <sodipodi:namedview
     pagecolor="#ffffff"
     bordercolor="#666666"
     borderopacity="1"
     objecttolerance="10"
     gridtolerance="10"
     guidetolerance="10"
     inkscape:pageopacity="0"
     inkscape:pageshadow="2"
     inkscape:window-width="1280"
     inkscape:window-height="747"
     id="namedview914"
     showgrid="false"
     inkscape:zoom="2.0204545"
     inkscape:cx="379.17749"
     inkscape:cy="484.64833"
     inkscape:window-x="0"
     inkscape:window-y="25"
     inkscape:window-maximized="1"
     inkscape:current-layer="svg912" />
  <style
     type="text/css"
     id="style902">
    path {
        fill: none;
        stroke-linecap: butt;
        stroke-linejoin: bevel;
        stroke-dasharray: none;
    }
    path.outer {
        stroke: #1a1a1a;
        stroke-dasharray: none;
        stroke-dashoffset: 0;
        stroke-width: 0.3;
        stroke-opacity: 1.0;
    }
    path.convex {
        stroke: #1a1a1a;
        stroke-dasharray: none;
        stroke-dashoffset:0;
        stroke-width:0.2;
        stroke-opacity: 1.0
    }
    path.concave {
        stroke: #000000;
        stroke-dasharray: 1.00,0.50,0.20,0.50;
        stroke-dashoffset: 0;
        stroke-width: 0.2;
        stroke-opacity: 1.0
    }
    path.freestyle {
        stroke: #000000;
        stroke-dasharray: none;
        stroke-dashoffset: 0;
        stroke-width: 0.2;
        stroke-opacity: 1.0
    }
    path.outer_background {
        stroke: #ffffff;
        stroke-opacity: 1.0;
        stroke-width: 0.5
    }
    path.inner_background {
        stroke: #ffffff;
        stroke-opacity: 1.0;
        stroke-width: 0.2
    }
    path.sticker {
        fill: #ffffff;
        stroke: none;
        fill-opacity: 1.0;
    }
    path.arrow {
        fill: #000000;
    }
    text {
        font-style: normal;
        fill: #000000;
        fill-opacity: 1.0;
        stroke: none;
    }
    text, tspan {
        text-anchor:middle;
    }
    </style>
  <g
     id="g910">
    <path
       class="sticker"
       d="m 94.599773,258.40355 3.863231,4.29054 -7.456139,22.94765 -5.647347,1.20036 z m 0,-108.72041 0.603497,5.74188 -23.907997,17.37017 -5.274355,-2.34829 z m -28.578855,20.76376 3.863223,4.29055 -9.132028,28.10552 -5.647339,1.20038 z"
       id="path904"
       sodipodi:nodetypes="ccccccccccccccc" />
    <path
       class="convex"
       d="m 66.020918,170.4469 -28.57884,-20.76376 m 17.662696,54.36021 10.916144,-33.59645 m 19.3386,116.3952 9.240255,-28.43855 m 0,-108.72041 L 83.68363,116.0867 M 66.020918,170.4469 94.599773,149.68314 H 129.92517 M 19.779374,204.04335 h 35.3254 l 10.916152,33.59646 m -28.578856,20.76372 28.578856,-20.76372 28.578847,20.76374"
       id="path906"
       sodipodi:nodetypes="cccccccccccccc" />
    <path
       class="outer"
       d="m 83.68363,116.0867 28.57883,-20.763753 24.19131,17.576013 2.71165,8.34561 -9.24025,28.43857 M 48.358214,116.0867 37.442078,149.68314 8.863215,170.4469 19.779374,204.04335 m 0,0 -10.916159,33.59644 28.578855,20.76374 10.916152,33.59646 H 77.0139 l 8.345618,-5.15789 5.647347,-1.20036 7.456139,-22.94765 -3.863231,-4.29054 m 35.325397,-108.72041 -1.46089,4.57876 -30.904756,0.26191 -2.959751,-4.84067 0.603497,5.74188 -23.907997,17.37017 -5.274355,-2.34829 3.863223,4.29055 -9.132028,28.10552 -5.647339,1.20038 5.264274,0.76617 9.559523,28.67857 -3.907645,4.15172 5.348122,-2.18743 24.488095,18.07143 -1.25737,4.87974"
       id="path908"
       sodipodi:nodetypes="cccccccccccccccccccccccccccccccccc" />
  </g>
  <path
     style="fill:none;stroke:#000000;stroke-width:0.264583px;stroke-linecap:butt;stroke-linejoin:miter;stroke-opacity:1"
     d="M 48.358213,116.0867 H 83.683627"
     id="path920" />
</svg>
